<?xml version="1.0" encoding="utf-8"?>
<!-- Generator: Adobe Illustrator 22.0.0, SVG Export Plug-In . SVG Version: 6.00 Build 0)  -->
<!DOCTYPE svg PUBLIC "-//W3C//DTD SVG 1.1//EN" "http://www.w3.org/Graphics/SVG/1.1/DTD/svg11.dtd">
<svg version="1.1" id="Layer_1" xmlns="http://www.w3.org/2000/svg" xmlns:xlink="http://www.w3.org/1999/xlink" x="0px" y="0px"
	 viewBox="0 0 100 100" enable-background="new 0 0 100 100" xml:space="preserve">
<g>
	<path fill="#FFFFFF" d="M86.9,79.6c-1.8,0-3.2,1.6-3.2,3.5c0,1.9,1.4,3.5,3.2,3.5c1.8,0,3.2-1.6,3.2-3.5
		C90.1,81.2,88.6,79.6,86.9,79.6z"/>
	<ellipse fill="#FFFFFF" cx="11.9" cy="74.3" rx="5.4" ry="5.7"/>
	<ellipse fill="#FFFFFF" cx="82.5" cy="26.8" rx="7.5" ry="7"/>
</g>
<path fill="#FFFFFF" d="M76.8,35.5c-1.9-2.6-4.2-5-6.9-6.8c-3-2.1-5.8-4.6-9-6.4c-3.2-1.8-6.8-2.7-10.4-2.7c-2.2,0-4.4,0.7-6.6,0.7
	c-2.1,0-4.3-0.7-6.4-0.7c-15.7,0-25.4,16-19.7,30.1c1.2,3,1.5,5.7,1.9,8.9C22,74.1,35.2,86.3,51.2,86.3c17.6,0,31.9-14.3,31.9-31.9
	C83.1,47.7,80.9,41,76.8,35.5z M50.5,66.8c4,0,6.6-2.1,7.8-6.5l9.3,1.3c-2.4,8.9-8.8,13.9-17.2,13.9c-10.8,0-18.3-8.1-18.3-22.1
	c0-14.1,7.6-22.2,18.3-22.2c8.4,0,14.9,5.1,17.3,14.1l-9.4,1.3c-1.3-4.5-3.9-6.7-7.8-6.7c-5.3,0-8.5,4-8.5,13.5
	C42,63,45.2,66.8,50.5,66.8z"/>
</svg>
