<?xml version="1.0" encoding="utf-8"?>
<!-- Generator: Adobe Illustrator 18.0.0, SVG Export Plug-In . SVG Version: 6.00 Build 0)  -->
<!DOCTYPE svg PUBLIC "-//W3C//DTD SVG 1.1//EN" "http://www.w3.org/Graphics/SVG/1.1/DTD/svg11.dtd">
<svg version="1.1" id="Layer_1" xmlns="http://www.w3.org/2000/svg" xmlns:xlink="http://www.w3.org/1999/xlink" x="0px" y="0px"
	 viewBox="0 0 50 50" enable-background="new 0 0 50 50" xml:space="preserve">
<g>
	<path fill="#FFFFFF" d="M25,1.1C15,6.8,0.6,22.7,0.3,44.5c0,0,8.6,3.3,24.7,3.3c15.1,0,24.7-3.3,24.7-3.3C49.4,22.7,35,6.8,25,1.1z
		 M44.1,42.1C44.1,42.1,44.1,42.1,44.1,42.1c-0.5,0-0.9-0.3-0.9-0.8c0-0.4-0.1-0.8-0.1-1.1l-0.1-1.1h-5.5c-0.4,0-0.7-0.3-0.7-0.7
		v-0.5c0-0.4,0.3-0.7,0.7-0.7h5.3c-0.4-2.3-0.9-4.4-1.5-6.4l-6.6,1.9l-1.1,5.8l-0.3,1.8l-0.4,1.9c-0.1,0.4-0.4,0.7-0.9,0.7H18.2
		c-0.4,0-0.8-0.3-0.9-0.7l-0.2-1l-0.2-0.9l-0.3-1.7l-0.5-2.6c0,0,0,0,0,0l-0.6-3.3l-6.6-1.9c-0.6,2-1.2,4.1-1.5,6.4l0,0c0,0,0,0,0,0
		h5.3c0.4,0,0.7,0.3,0.7,0.7v0.5c0,0.4-0.3,0.7-0.7,0.7H7.1c-0.1,0.6-0.2,1.3-0.2,1.8c0,0,0,0,0,0c0,0.1,0,0.3,0,0.4
		c0,0.5-0.5,0.8-0.9,0.8c-0.5,0-0.8-0.5-0.8-0.9c0.1-0.7,0.1-1.3,0.2-2c0,0,0,0,0,0c0.4-3.6,1.2-6.9,2.2-9.8c0,0,0,0,0,0
		c0,0,0-0.1,0-0.1c1.4-4.2,3.2-7.7,4.8-10.3c0,0,0,0,0,0c0.2-0.3,0.3-0.5,0.5-0.8C17,11.6,21.5,7.7,24.5,5.5c0.3-0.2,0.7-0.2,1,0
		c3,2.1,7.5,6.1,11.6,12.6c0.2,0.3,0.3,0.5,0.5,0.8c0,0,0,0,0,0c1.6,2.7,3.4,6.1,4.8,10.3c0,0,0,0.1,0,0.1c0,0,0,0,0,0
		c1,2.9,1.8,6.2,2.2,9.8c0,0,0,0,0,0c0.1,0.6,0.1,1.3,0.2,2C44.9,41.7,44.6,42.1,44.1,42.1z"/>
	<path fill="#FFFFFF" d="M36.5,20.4l-0.9-1.5C31.8,13.1,27.9,9.4,25,7.3c-2.9,2.1-6.8,5.8-10.6,11.6l-0.9,1.5
		c-1.4,2.3-2.8,5.2-4,8.6l7.1,2.1c0.3,0.1,0.6,0.4,0.6,0.7l0.2,1l0.1,0.3l0.3,1.5l1.2,6.6h1h1.1v-2c0-0.4,0.3-0.7,0.7-0.7
		c0.4,0,0.7,0.3,0.7,0.7v2H24h0.2v-2c0-0.4,0.3-0.7,0.7-0.7s0.7,0.3,0.7,0.7v2h0.4h1.5v-2c0-0.4,0.3-0.7,0.7-0.7
		c0.4,0,0.7,0.3,0.7,0.7v2h1h1l1.2-6.3l0.3-1.6l0.3-1.5c0.1-0.3,0.3-0.6,0.6-0.7l7.1-2.1C39.3,25.6,37.9,22.7,36.5,20.4z M22,24.9
		l-2,1.5c-0.8,0.6-1.8,0.9-2.7,0.9h-0.6c-1.5,0-2.7-1.2-2.7-2.7v-0.9c0-2,1.6-3.7,3.7-3.7h2.8c1.5,0,2.7,1.2,2.7,2.7
		C23.1,23.6,22.7,24.4,22,24.9z M27.1,33.4C26.9,33.8,26.5,34,26,34H24c-0.4,0-0.8-0.2-1.1-0.6c-0.2-0.3-0.3-0.8-0.1-1.2l1-2.8
		c0.2-0.5,0.7-0.8,1.2-0.8c0.5,0,1,0.3,1.2,0.8l1,2.8C27.4,32.7,27.3,33.1,27.1,33.4z M36.1,24.6c0,1.5-1.2,2.7-2.7,2.7h-0.6
		c-1,0-2-0.3-2.7-0.9l-2-1.5c-0.7-0.5-1.1-1.3-1.1-2.2c0-1.5,1.2-2.7,2.7-2.7h2.8c2,0,3.7,1.6,3.7,3.7V24.6z"/>
</g>
</svg>
