<?xml version="1.0" encoding="utf-8"?>
<!-- Generator: Adobe Illustrator 18.0.0, SVG Export Plug-In . SVG Version: 6.00 Build 0)  -->
<!DOCTYPE svg PUBLIC "-//W3C//DTD SVG 1.1//EN" "http://www.w3.org/Graphics/SVG/1.1/DTD/svg11.dtd">
<svg version="1.1" id="Layer_1" xmlns="http://www.w3.org/2000/svg" xmlns:xlink="http://www.w3.org/1999/xlink" x="0px" y="0px"
	 viewBox="0 0 50 50" enable-background="new 0 0 50 50" xml:space="preserve">
<g>
	<g>
		<g>
			<path opacity="0.5" fill="#FFFFFF" enable-background="new    " d="M6.3,9.9H2.5v30.4h3.7v2.1H0V7.8h6.3V9.9z"/>
			<path opacity="0.5" fill="#FFFFFF" enable-background="new    " d="M43.7,40.3h3.7V9.9h-3.7V7.8H50v34.6h-6.3V40.3z"/>
		</g>
	</g>
</g>
<g>
	<path fill="#FFFFFF" d="M12.5,19.1c-0.4,0.4-0.6,0.8-0.6,1.4s0.3,1.1,0.8,1.4c0.5,0.4,1.8,0.7,3.6,1.2c1.9,0.4,3.3,1.1,4.4,2.1
		c1.1,1,1.6,2.3,1.6,4s-0.7,3.3-2,4.3c-1.3,1.1-3.1,1.7-5.3,1.7c-3.2,0-6-1.1-8.5-3.5l2.6-3.3c2.1,1.8,4.1,2.8,6,2.8
		c0.8,0,1.5-0.2,1.9-0.5c0.4-0.4,0.7-0.8,0.7-1.4c0-0.6-0.3-1.1-0.7-1.4c-0.5-0.4-1.5-0.7-2.9-1.1c-2.3-0.5-4-1.2-5.1-2.1
		s-1.6-2.3-1.6-4.1s0.7-3.3,2-4.4s3.1-1.6,5.1-1.6c1.3,0,2.6,0.3,4,0.7s2.5,1.1,3.5,1.9l-2.4,3.3c-1.8-1.3-3.5-1.9-5.4-1.9
		C13.6,18.6,12.9,18.8,12.5,19.1z"/>
	<path fill="#FFFFFF" d="M35.2,31.2c2.2,0,4-0.9,5.4-2.6l2.8,2.9c-2.3,2.6-4.9,3.8-8,3.8c-3.1,0-5.6-1-7.6-2.9c-2-1.9-3-4.4-3-7.4
		s1.1-5.5,3.1-7.4s4.5-3,7.5-3c3.3,0,6,1.2,8.2,3.8l-2.7,3.3c-1.4-1.8-3.2-2.6-5.3-2.6c-1.7,0-3.1,0.5-4.3,1.7
		c-1.2,1.1-1.8,2.6-1.8,4.4c0,1.8,0.5,3.3,1.7,4.5S33.6,31.2,35.2,31.2z"/>
</g>
</svg>
