<?xml version="1.0" encoding="utf-8"?>
<!-- Generator: Adobe Illustrator 18.0.0, SVG Export Plug-In . SVG Version: 6.00 Build 0)  -->
<!DOCTYPE svg PUBLIC "-//W3C//DTD SVG 1.1//EN" "http://www.w3.org/Graphics/SVG/1.1/DTD/svg11.dtd">
<svg version="1.1" id="Layer_1" xmlns="http://www.w3.org/2000/svg" xmlns:xlink="http://www.w3.org/1999/xlink" x="0px" y="0px"
	 viewBox="0 0 100 100" enable-background="new 0 0 100 100" xml:space="preserve">
<g>
	<circle fill="#FFFFFF" cx="89.7" cy="84" r="4.9"/>
	<circle fill="#FFFFFF" cx="8.7" cy="71.9" r="7.6"/>
	<circle fill="#FFFFFF" cx="89.2" cy="17.7" r="9.8"/>
	<path fill="#FFFFFF" d="M68.8,22.6c-4.3-4.5-10.4-7.3-17.1-7.3c-2.5,0-4.9,0.4-7.1,1.1c-2.3-0.7-4.7-1.1-7.1-1.1
		c-13.1,0-23.7,10.6-23.7,23.7c0,4.8,1.4,9.3,3.9,13c0,0.5,0,1,0,1.6c0,19.3,15.7,35,35,35c19.3,0,35-15.7,35-35
		C87.5,40.1,79.9,28.4,68.8,22.6z M61.9,75.4c-2.5,0.7-5.4,1-8.7,1c-7,0-12.4-2-16.1-5.9c-3.7-3.9-5.5-9.5-5.5-16.7
		c0-3.6,0.6-6.8,1.7-9.6c1.1-2.8,2.7-5.2,4.6-7.1c2-1.9,4.3-3.4,7-4.4c2.7-1,5.6-1.5,8.8-1.5c1.8,0,3.5,0.1,5,0.4
		c1.5,0.3,2.8,0.6,3.9,0.9c1.1,0.4,2.1,0.7,2.8,1.1c0.8,0.4,1.3,0.7,1.6,0.9l-2.8,7.9c-1.3-0.7-2.9-1.3-4.7-1.8
		c-1.8-0.5-3.8-0.8-6-0.8c-1.5,0-3,0.3-4.4,0.8c-1.4,0.5-2.7,1.3-3.8,2.4c-1.1,1.1-2,2.5-2.7,4.3c-0.7,1.7-1,3.9-1,6.4
		c0,2,0.2,3.9,0.7,5.6c0.4,1.7,1.1,3.2,2.1,4.5c1,1.2,2.3,2.2,3.8,3c1.6,0.7,3.5,1.1,5.7,1.1c1.4,0,2.7-0.1,3.8-0.3
		c1.1-0.2,2.1-0.4,3-0.6c0.9-0.2,1.6-0.5,2.3-0.8c0.7-0.3,1.3-0.6,1.8-0.8l2.7,7.8C66.3,74,64.4,74.7,61.9,75.4z"/>
</g>
</svg>
